<svg width="112" height="32" viewBox="0 0 112 32" fill="none" xmlns="http://www.w3.org/2000/svg">
<circle cx="16" cy="21" r="10" fill="black"/>
<path d="M25.5 9.5057C25.5 11.9761 24.445 14.2063 22.6607 16.6163C21.3623 18.37 19.712 20.1766 17.8483 22.2168C17.2524 22.8692 16.6346 23.5455 15.9996 24.2515C15.3672 23.55 14.7539 22.8793 14.1634 22.2337C12.2639 20.1567 10.6009 18.3383 9.30213 16.5807C7.53162 14.1845 6.5 11.9778 6.5 9.5057C6.5 4.55557 10.7291 0.5 16 0.5C21.2709 0.5 25.5 4.55557 25.5 9.5057Z" fill="black" stroke="white"/>
<circle cx="16" cy="10" r="5" fill="white"/>
<path d="M42.9844 25.3594C46.7578 25.3594 49.1133 23.4492 49.1133 20.6484V8.4375H45.6914V10.582H45.6211C44.9414 9.11719 43.5703 8.17969 41.8008 8.17969C38.625 8.17969 36.6562 10.5586 36.6562 14.5664V14.5781C36.6562 18.4805 38.6016 20.8242 41.7422 20.8242C43.5586 20.8242 44.9648 19.9922 45.6211 18.6797H45.6914V20.6016C45.6914 22.0078 44.7539 22.9219 42.9844 22.9219C41.5547 22.9219 40.6406 22.3828 40.3711 21.7617L40.3359 21.6797H37.0078L37.0195 21.7852C37.3477 23.8008 39.5273 25.3594 42.9844 25.3594ZM42.9258 18.3164C41.2148 18.3164 40.1367 16.9219 40.1367 14.6602V14.6484C40.1367 12.3984 41.2266 11.0156 42.9258 11.0156C44.5898 11.0156 45.7031 12.4102 45.7031 14.6484V14.6602C45.7031 16.9102 44.6016 18.3164 42.9258 18.3164ZM57.082 21.2578C60.668 21.2578 62.4023 19.1367 62.7891 17.2852L62.8242 17.1562H59.6836L59.6602 17.2266C59.4141 17.9297 58.5586 18.7031 57.1523 18.7031C55.4062 18.7031 54.3164 17.5312 54.2812 15.5273H62.9297V14.4727C62.9297 10.6758 60.6211 8.17969 56.9414 8.17969C53.2617 8.17969 50.9062 10.7344 50.9062 14.7305V14.7422C50.9062 18.7617 53.2383 21.2578 57.082 21.2578ZM57 10.7344C58.418 10.7344 59.4375 11.6367 59.6484 13.3711H54.3164C54.5391 11.6719 55.5938 10.7344 57 10.7344ZM70.4648 21.2578C74.2617 21.2578 76.6875 18.8203 76.6875 14.7188V14.6953C76.6875 10.6289 74.2148 8.17969 70.4531 8.17969C66.7031 8.17969 64.2422 10.6523 64.2422 14.6953V14.7188C64.2422 18.8086 66.6445 21.2578 70.4648 21.2578ZM70.4766 18.5742C68.7891 18.5742 67.7227 17.1797 67.7227 14.7188V14.6953C67.7227 12.2695 68.8008 10.8633 70.4531 10.8633C72.1172 10.8633 73.207 12.2695 73.207 14.6953V14.7188C73.207 17.168 72.1406 18.5742 70.4766 18.5742ZM78.5391 21H81.9609V4.08984H78.5391V21ZM90.0352 21.2578C93.832 21.2578 96.2578 18.8203 96.2578 14.7188V14.6953C96.2578 10.6289 93.7852 8.17969 90.0234 8.17969C86.2734 8.17969 83.8125 10.6523 83.8125 14.6953V14.7188C83.8125 18.8086 86.2148 21.2578 90.0352 21.2578ZM90.0469 18.5742C88.3594 18.5742 87.293 17.1797 87.293 14.7188V14.6953C87.293 12.2695 88.3711 10.8633 90.0234 10.8633C91.6875 10.8633 92.7773 12.2695 92.7773 14.6953V14.7188C92.7773 17.168 91.7109 18.5742 90.0469 18.5742ZM103.898 25.3594C107.672 25.3594 110.027 23.4492 110.027 20.6484V8.4375H106.605V10.582H106.535C105.855 9.11719 104.484 8.17969 102.715 8.17969C99.5391 8.17969 97.5703 10.5586 97.5703 14.5664V14.5781C97.5703 18.4805 99.5156 20.8242 102.656 20.8242C104.473 20.8242 105.879 19.9922 106.535 18.6797H106.605V20.6016C106.605 22.0078 105.668 22.9219 103.898 22.9219C102.469 22.9219 101.555 22.3828 101.285 21.7617L101.25 21.6797H97.9219L97.9336 21.7852C98.2617 23.8008 100.441 25.3594 103.898 25.3594ZM103.84 18.3164C102.129 18.3164 101.051 16.9219 101.051 14.6602V14.6484C101.051 12.3984 102.141 11.0156 103.84 11.0156C105.504 11.0156 106.617 12.4102 106.617 14.6484V14.6602C106.617 16.9102 105.516 18.3164 103.84 18.3164Z" fill="black"/>
</svg>
